<svg width="115" height="115" viewBox="0 0 115 115" fill="none" xmlns="http://www.w3.org/2000/svg">
<path d="M91.0417 86.2499H43.125C40.5833 86.2499 38.1458 85.2402 36.3486 83.443C34.5513 81.6458 33.5417 79.2082 33.5417 76.6666V19.1666C33.5417 16.6249 34.5513 14.1874 36.3486 12.3901C38.1458 10.5929 40.5833 9.58325 43.125 9.58325H47.9167V33.5416L57.5 26.3541L67.0833 33.5416V9.58325H91.0417C93.5833 9.58325 96.0209 10.5929 97.8181 12.3901C99.6153 14.1874 100.625 16.6249 100.625 19.1666V76.6666C100.625 79.2082 99.6153 81.6458 97.8181 83.443C96.0209 85.2402 93.5833 86.2499 91.0417 86.2499ZM81.4583 95.8333V105.417H23.9583C21.4167 105.417 18.9791 104.407 17.1819 102.61C15.3847 100.812 14.375 98.3749 14.375 95.8333V28.7499H23.9583V95.8333H81.4583Z" fill="#0D2B7E"/>
</svg>
