<svg width="489" height="150" viewBox="0 0 489 150" fill="none" xmlns="http://www.w3.org/2000/svg">
<g filter="url(#filter0_dii_368_1564)">
<rect x="17" width="560" height="132" rx="66" fill="#142D6F"/>
<path d="M82.36 80.52C80.4667 80.52 78.6867 80.1467 77.02 79.4C75.3533 78.64 73.8867 77.6 72.62 76.28C71.3667 74.9467 70.38 73.4 69.66 71.64C68.9533 69.88 68.6 68 68.6 66C68.6 64 68.9533 62.12 69.66 60.36C70.38 58.6 71.3667 57.06 72.62 55.74C73.8867 54.4067 75.3533 53.3667 77.02 52.62C78.6867 51.86 80.4667 51.48 82.36 51.48C84.6267 51.48 86.7133 52.0067 88.62 53.06C90.5267 54.1133 92.1067 55.5133 93.36 57.26L89.66 59.24C88.7933 58.1467 87.72 57.2733 86.44 56.62C85.16 55.9667 83.8 55.64 82.36 55.64C81.0267 55.64 79.78 55.9133 78.62 56.46C77.46 57.0067 76.44 57.7533 75.56 58.7C74.68 59.6467 73.9933 60.7467 73.5 62C73.0067 63.2533 72.76 64.5867 72.76 66C72.76 67.4267 73.0067 68.7667 73.5 70.02C73.9933 71.26 74.68 72.36 75.56 73.32C76.4533 74.2667 77.48 75.0133 78.64 75.56C79.8 76.0933 81.04 76.36 82.36 76.36C83.8267 76.36 85.1933 76.0333 86.46 75.38C87.74 74.7133 88.8067 73.8333 89.66 72.74L93.36 74.76C92.1067 76.5067 90.5267 77.9067 88.62 78.96C86.7133 80 84.6267 80.52 82.36 80.52ZM104.997 80.52C103.157 80.52 101.477 80.0467 99.9569 79.1C98.4502 78.1533 97.2435 76.8867 96.3369 75.3C95.4435 73.7 94.9969 71.9333 94.9969 70C94.9969 68.5333 95.2569 67.1667 95.7769 65.9C96.2969 64.62 97.0102 63.5 97.9169 62.54C98.8369 61.5667 99.9035 60.8067 101.117 60.26C102.33 59.7133 103.624 59.44 104.997 59.44C106.837 59.44 108.51 59.9133 110.017 60.86C111.537 61.8067 112.744 63.08 113.637 64.68C114.544 66.28 114.997 68.0533 114.997 70C114.997 71.4533 114.737 72.8133 114.217 74.08C113.697 75.3467 112.977 76.4667 112.057 77.44C111.15 78.4 110.09 79.1533 108.877 79.7C107.677 80.2467 106.384 80.52 104.997 80.52ZM104.997 76.36C106.104 76.36 107.097 76.0667 107.977 75.48C108.857 74.8933 109.55 74.12 110.057 73.16C110.577 72.1867 110.837 71.1333 110.837 70C110.837 68.84 110.57 67.7733 110.037 66.8C109.517 65.8267 108.817 65.0533 107.937 64.48C107.057 63.8933 106.077 63.6 104.997 63.6C103.904 63.6 102.91 63.8933 102.017 64.48C101.137 65.0667 100.437 65.8467 99.9169 66.82C99.4102 67.7933 99.1569 68.8533 99.1569 70C99.1569 71.1867 99.4235 72.26 99.9569 73.22C100.49 74.18 101.197 74.9467 102.077 75.52C102.97 76.08 103.944 76.36 104.997 76.36ZM118.228 80V60H122.388V62.12C123.081 61.2933 123.928 60.64 124.928 60.16C125.941 59.68 127.035 59.44 128.208 59.44C129.635 59.44 130.948 59.7867 132.148 60.48C133.348 61.16 134.301 62.0667 135.008 63.2C135.715 62.0667 136.655 61.16 137.828 60.48C139.015 59.7867 140.321 59.44 141.748 59.44C143.228 59.44 144.575 59.8 145.788 60.52C147.001 61.24 147.968 62.2067 148.688 63.42C149.408 64.6333 149.768 65.98 149.768 67.46V80H145.608V68.52C145.608 67.64 145.395 66.8333 144.968 66.1C144.541 65.3667 143.968 64.7733 143.248 64.32C142.528 63.8667 141.728 63.64 140.848 63.64C139.968 63.64 139.168 63.8533 138.448 64.28C137.728 64.7067 137.155 65.2867 136.728 66.02C136.301 66.7533 136.088 67.5867 136.088 68.52V80H131.928V68.52C131.928 67.5867 131.715 66.7533 131.288 66.02C130.861 65.2867 130.281 64.7067 129.548 64.28C128.828 63.8533 128.028 63.64 127.148 63.64C126.281 63.64 125.481 63.8667 124.748 64.32C124.028 64.7733 123.455 65.3667 123.028 66.1C122.601 66.8333 122.388 67.64 122.388 68.52V80H118.228ZM153.775 80V60H157.935V62.12C158.628 61.2933 159.475 60.64 160.475 60.16C161.488 59.68 162.582 59.44 163.755 59.44C165.182 59.44 166.495 59.7867 167.695 60.48C168.895 61.16 169.848 62.0667 170.555 63.2C171.262 62.0667 172.202 61.16 173.375 60.48C174.562 59.7867 175.868 59.44 177.295 59.44C178.775 59.44 180.122 59.8 181.335 60.52C182.548 61.24 183.515 62.2067 184.235 63.42C184.955 64.6333 185.315 65.98 185.315 67.46V80H181.155V68.52C181.155 67.64 180.942 66.8333 180.515 66.1C180.088 65.3667 179.515 64.7733 178.795 64.32C178.075 63.8667 177.275 63.64 176.395 63.64C175.515 63.64 174.715 63.8533 173.995 64.28C173.275 64.7067 172.702 65.2867 172.275 66.02C171.848 66.7533 171.635 67.5867 171.635 68.52V80H167.475V68.52C167.475 67.5867 167.262 66.7533 166.835 66.02C166.408 65.2867 165.828 64.7067 165.095 64.28C164.375 63.8533 163.575 63.64 162.695 63.64C161.828 63.64 161.028 63.8667 160.295 64.32C159.575 64.7733 159.002 65.3667 158.575 66.1C158.148 66.8333 157.935 67.64 157.935 68.52V80H153.775ZM197.731 80.52C195.891 80.52 194.211 80.0467 192.691 79.1C191.185 78.1533 189.978 76.8867 189.071 75.3C188.178 73.7 187.731 71.9333 187.731 70C187.731 68.5333 187.991 67.1667 188.511 65.9C189.031 64.62 189.745 63.5 190.651 62.54C191.571 61.5667 192.638 60.8067 193.851 60.26C195.065 59.7133 196.358 59.44 197.731 59.44C199.265 59.44 200.671 59.76 201.951 60.4C203.231 61.0267 204.325 61.9 205.231 63.02C206.138 64.1267 206.805 65.4067 207.231 66.86C207.658 68.3 207.785 69.8333 207.611 71.46H192.191C192.365 72.38 192.698 73.2133 193.191 73.96C193.698 74.6933 194.338 75.2733 195.111 75.7C195.898 76.1267 196.771 76.3467 197.731 76.36C198.745 76.36 199.665 76.1067 200.491 75.6C201.331 75.0933 202.018 74.3933 202.551 73.5L206.771 74.48C205.971 76.2533 204.765 77.7067 203.151 78.84C201.538 79.96 199.731 80.52 197.731 80.52ZM192.051 68.28H203.411C203.278 67.32 202.938 66.4533 202.391 65.68C201.858 64.8933 201.185 64.2733 200.371 63.82C199.571 63.3533 198.691 63.12 197.731 63.12C196.785 63.12 195.905 63.3467 195.091 63.8C194.291 64.2533 193.625 64.8733 193.091 65.66C192.571 66.4333 192.225 67.3067 192.051 68.28ZM228.923 67.46V80H224.763V68.48C224.763 67.5867 224.543 66.7733 224.103 66.04C223.677 65.3067 223.097 64.7267 222.363 64.3C221.643 63.86 220.83 63.64 219.923 63.64C219.043 63.64 218.237 63.86 217.503 64.3C216.77 64.7267 216.183 65.3067 215.743 66.04C215.303 66.7733 215.083 67.5867 215.083 68.48V80H210.923V60H215.083V62.12C215.777 61.2933 216.63 60.64 217.643 60.16C218.657 59.68 219.75 59.44 220.923 59.44C222.403 59.44 223.75 59.8 224.963 60.52C226.177 61.24 227.137 62.2067 227.843 63.42C228.563 64.6333 228.923 65.98 228.923 67.46ZM243.476 64.16H239.276L239.256 80H235.096L235.116 64.16H231.936V60H235.116L235.096 53.72H239.256L239.276 60H243.476V64.16ZM248.046 80.52C247.432 80.52 246.912 80.3067 246.486 79.88C246.072 79.4533 245.866 78.9333 245.866 78.32C245.866 77.72 246.072 77.2067 246.486 76.78C246.912 76.3533 247.432 76.14 248.046 76.14C248.659 76.14 249.179 76.3533 249.606 76.78C250.032 77.2067 250.246 77.72 250.246 78.32C250.246 78.9333 250.032 79.4533 249.606 79.88C249.179 80.3067 248.659 80.52 248.046 80.52ZM256.444 80.52C255.831 80.52 255.311 80.3067 254.884 79.88C254.471 79.4533 254.264 78.9333 254.264 78.32C254.264 77.72 254.471 77.2067 254.884 76.78C255.311 76.3533 255.831 76.14 256.444 76.14C257.057 76.14 257.577 76.3533 258.004 76.78C258.431 77.2067 258.644 77.72 258.644 78.32C258.644 78.9333 258.431 79.4533 258.004 79.88C257.577 80.3067 257.057 80.52 256.444 80.52ZM264.843 80.52C264.229 80.52 263.709 80.3067 263.283 79.88C262.869 79.4533 262.663 78.9333 262.663 78.32C262.663 77.72 262.869 77.2067 263.283 76.78C263.709 76.3533 264.229 76.14 264.843 76.14C265.456 76.14 265.976 76.3533 266.403 76.78C266.829 77.2067 267.043 77.72 267.043 78.32C267.043 78.9333 266.829 79.4533 266.403 79.88C265.976 80.3067 265.456 80.52 264.843 80.52ZM273.241 80.52C272.628 80.52 272.108 80.3067 271.681 79.88C271.268 79.4533 271.061 78.9333 271.061 78.32C271.061 77.72 271.268 77.2067 271.681 76.78C272.108 76.3533 272.628 76.14 273.241 76.14C273.854 76.14 274.374 76.3533 274.801 76.78C275.228 77.2067 275.441 77.72 275.441 78.32C275.441 78.9333 275.228 79.4533 274.801 79.88C274.374 80.3067 273.854 80.52 273.241 80.52Z" fill="#EAEFFF"/>
</g>
<defs>
<filter id="filter0_dii_368_1564" x="0" y="-7" width="580" height="157" filterUnits="userSpaceOnUse" color-interpolation-filters="sRGB">
<feFlood flood-opacity="0" result="BackgroundImageFix"/>
<feColorMatrix in="SourceAlpha" type="matrix" values="0 0 0 0 0 0 0 0 0 0 0 0 0 0 0 0 0 0 127 0" result="hardAlpha"/>
<feOffset dx="-8" dy="9"/>
<feGaussianBlur stdDeviation="4.5"/>
<feComposite in2="hardAlpha" operator="out"/>
<feColorMatrix type="matrix" values="0 0 0 0 0 0 0 0 0 0 0 0 0 0 0 0 0 0 0.25 0"/>
<feBlend mode="normal" in2="BackgroundImageFix" result="effect1_dropShadow_368_1564"/>
<feBlend mode="normal" in="SourceGraphic" in2="effect1_dropShadow_368_1564" result="shape"/>
<feColorMatrix in="SourceAlpha" type="matrix" values="0 0 0 0 0 0 0 0 0 0 0 0 0 0 0 0 0 0 127 0" result="hardAlpha"/>
<feOffset dx="-2" dy="-7"/>
<feGaussianBlur stdDeviation="12"/>
<feComposite in2="hardAlpha" operator="arithmetic" k2="-1" k3="1"/>
<feColorMatrix type="matrix" values="0 0 0 0 0 0 0 0 0 0 0 0 0 0 0 0 0 0 1 0"/>
<feBlend mode="normal" in2="shape" result="effect2_innerShadow_368_1564"/>
<feColorMatrix in="SourceAlpha" type="matrix" values="0 0 0 0 0 0 0 0 0 0 0 0 0 0 0 0 0 0 127 0" result="hardAlpha"/>
<feOffset dx="3" dy="5"/>
<feGaussianBlur stdDeviation="5"/>
<feComposite in2="hardAlpha" operator="arithmetic" k2="-1" k3="1"/>
<feColorMatrix type="matrix" values="0 0 0 0 1 0 0 0 0 1 0 0 0 0 1 0 0 0 1 0"/>
<feBlend mode="normal" in2="effect2_innerShadow_368_1564" result="effect3_innerShadow_368_1564"/>
</filter>
</defs>
</svg>
