<svg width="166" height="31" viewBox="0 0 166 31" fill="none" xmlns="http://www.w3.org/2000/svg">
<path d="M0.4 30V2H17.96V6.88H5.28V12.56H15.34V17.44H5.28V25.12H17.96V30H0.4ZM20.2203 30L27.5403 19.96L20.2803 9.98H26.3003L30.5403 15.8L34.8003 9.98H40.8203L33.5603 19.96L40.8803 30H34.8603L30.5403 24.08L26.2403 30H20.2203ZM57.6972 10H62.5772V30H57.6972L57.4772 27.52C56.9305 28.4133 56.2039 29.14 55.2972 29.7C54.4039 30.2467 53.3439 30.52 52.1172 30.52C50.6372 30.52 49.2505 30.24 47.9572 29.68C46.6639 29.12 45.5239 28.3467 44.5372 27.36C43.5639 26.3733 42.7972 25.2333 42.2372 23.94C41.6905 22.6467 41.4172 21.26 41.4172 19.78C41.4172 18.3533 41.6772 17.0133 42.1972 15.76C42.7305 14.5067 43.4705 13.4067 44.4172 12.46C45.3639 11.5133 46.4572 10.7733 47.6972 10.24C48.9372 9.70667 50.2705 9.44 51.6972 9.44C53.0172 9.44 54.1972 9.73333 55.2372 10.32C56.2905 10.9067 57.1839 11.6533 57.9172 12.56L57.6972 10ZM51.9972 25.82C53.0372 25.82 53.9572 25.56 54.7572 25.04C55.5572 24.52 56.1839 23.82 56.6372 22.94C57.0905 22.0467 57.3172 21.0667 57.3172 20C57.3172 18.92 57.0905 17.94 56.6372 17.06C56.1839 16.1667 55.5505 15.46 54.7372 14.94C53.9372 14.42 53.0239 14.16 51.9972 14.16C50.9705 14.16 50.0305 14.4267 49.1772 14.96C48.3372 15.48 47.6639 16.18 47.1572 17.06C46.6639 17.94 46.4172 18.92 46.4172 20C46.4172 21.08 46.6705 22.06 47.1772 22.94C47.6839 23.82 48.3572 24.52 49.1972 25.04C50.0505 25.56 50.9839 25.82 51.9972 25.82ZM66.3625 30V10H71.2425V11.78C71.9225 11.06 72.7358 10.4933 73.6825 10.08C74.6292 9.65333 75.6492 9.44 76.7425 9.44C78.1292 9.44 79.4025 9.76667 80.5625 10.42C81.7358 11.0733 82.6692 11.9467 83.3625 13.04C84.0692 11.9467 85.0025 11.0733 86.1625 10.42C87.3225 9.76667 88.5958 9.44 89.9825 9.44C91.4492 9.44 92.7758 9.8 93.9625 10.52C95.1625 11.2267 96.1158 12.18 96.8225 13.38C97.5425 14.5667 97.9025 15.8933 97.9025 17.36V30H93.0225V18.66C93.0225 17.8867 92.8292 17.18 92.4425 16.54C92.0692 15.8867 91.5625 15.3667 90.9225 14.98C90.2958 14.58 89.5892 14.38 88.8025 14.38C88.0158 14.38 87.3025 14.5733 86.6625 14.96C86.0358 15.3333 85.5292 15.84 85.1425 16.48C84.7558 17.12 84.5625 17.8467 84.5625 18.66V30H79.6825V18.66C79.6825 17.8467 79.4958 17.12 79.1225 16.48C78.7492 15.84 78.2425 15.3333 77.6025 14.96C76.9625 14.5733 76.2492 14.38 75.4625 14.38C74.6892 14.38 73.9825 14.58 73.3425 14.98C72.7025 15.3667 72.1892 15.8867 71.8025 16.54C71.4292 17.18 71.2425 17.8867 71.2425 18.66V30H66.3625ZM101.827 30V2H112.027C113.507 2 114.84 2.30666 116.027 2.92C117.227 3.52 118.173 4.38667 118.867 5.52C119.573 6.64 119.927 7.96666 119.927 9.5C119.927 10.18 119.827 10.8667 119.627 11.56C119.427 12.2533 119.12 12.88 118.707 13.44C118.293 13.9867 117.76 14.3933 117.107 14.66C117.973 14.8733 118.68 15.26 119.227 15.82C119.773 16.38 120.2 17.04 120.507 17.8C120.813 18.5467 121.02 19.3133 121.127 20.1C121.247 20.8733 121.307 21.5933 121.307 22.26C121.307 23.74 120.94 25.06 120.207 26.22C119.473 27.38 118.487 28.3 117.247 28.98C116.02 29.66 114.66 30 113.167 30H101.827ZM106.707 25.82H112.667C113.467 25.82 114.187 25.6267 114.827 25.24C115.467 24.8533 115.98 24.32 116.367 23.64C116.753 22.96 116.947 22.1867 116.947 21.32C116.947 20.5733 116.753 19.8667 116.367 19.2C115.98 18.5333 115.467 17.9933 114.827 17.58C114.187 17.1667 113.467 16.96 112.667 16.96H106.707V25.82ZM106.707 12.84H111.467C112.453 12.84 113.293 12.5333 113.987 11.92C114.693 11.3067 115.047 10.4933 115.047 9.48C115.047 8.4 114.693 7.58667 113.987 7.04C113.293 6.48 112.453 6.2 111.467 6.2H106.707V12.84ZM123.522 22.6V10H128.402V21.32C128.402 22.1067 128.595 22.8267 128.982 23.48C129.369 24.12 129.882 24.6333 130.522 25.02C131.175 25.3933 131.889 25.58 132.662 25.58C133.462 25.58 134.182 25.3933 134.822 25.02C135.462 24.6333 135.975 24.12 136.362 23.48C136.749 22.8267 136.942 22.1067 136.942 21.32V10H141.822L141.842 30H136.962L136.942 28.18C136.249 28.9 135.429 29.4733 134.482 29.9C133.535 30.3133 132.522 30.52 131.442 30.52C129.989 30.52 128.662 30.1667 127.462 29.46C126.262 28.74 125.302 27.7867 124.582 26.6C123.875 25.4 123.522 24.0667 123.522 22.6ZM160.453 -2.38419e-06H165.333V30H160.453V27.5C159.813 28.3933 159.006 29.12 158.033 29.68C157.059 30.24 155.933 30.52 154.653 30.52C153.199 30.52 151.839 30.2467 150.573 29.7C149.306 29.1533 148.186 28.4 147.213 27.44C146.253 26.4667 145.499 25.3467 144.953 24.08C144.406 22.8133 144.133 21.4533 144.133 20C144.133 18.5467 144.406 17.1867 144.953 15.92C145.499 14.6533 146.253 13.54 147.213 12.58C148.186 11.6067 149.306 10.8467 150.573 10.3C151.839 9.75333 153.199 9.48 154.653 9.48C155.933 9.48 157.059 9.76 158.033 10.32C159.006 10.8667 159.813 11.5933 160.453 12.5V-2.38419e-06ZM154.713 25.82C155.753 25.82 156.673 25.56 157.473 25.04C158.273 24.52 158.899 23.82 159.353 22.94C159.806 22.0467 160.033 21.0667 160.033 20C160.033 18.92 159.806 17.94 159.353 17.06C158.899 16.1667 158.266 15.46 157.453 14.94C156.653 14.42 155.739 14.16 154.713 14.16C153.686 14.16 152.746 14.4267 151.893 14.96C151.053 15.48 150.379 16.18 149.873 17.06C149.379 17.94 149.133 18.92 149.133 20C149.133 21.08 149.386 22.06 149.893 22.94C150.399 23.82 151.073 24.52 151.913 25.04C152.766 25.56 153.699 25.82 154.713 25.82Z" fill="#142D6F"/>
</svg>
