<svg width="14" height="18" viewBox="0 0 14 18" fill="none" xmlns="http://www.w3.org/2000/svg">
<path fill-rule="evenodd" clip-rule="evenodd" d="M13.4323 14C11.3873 8.893 9.00028 7.547 9.00028 5V2H9.50028C9.63288 2 9.76006 1.94732 9.85383 1.85355C9.9476 1.75979 10.0003 1.63261 10.0003 1.5V0.5C10.0003 0.367392 9.9476 0.240215 9.85383 0.146447C9.76006 0.0526784 9.63288 0 9.50028 0H4.50028C4.36767 0 4.24049 0.0526784 4.14672 0.146447C4.05295 0.240215 4.00028 0.367392 4.00028 0.5V1.5C4.00028 1.63261 4.05295 1.75979 4.14672 1.85355C4.24049 1.94732 4.36767 2 4.50028 2H5.00028V5C5.00028 7.547 2.61328 8.893 0.568275 14C-0.0827248 15.625 -1.75472 18 7.00028 18C15.7553 18 14.0833 15.625 13.4323 14ZM11.8153 15.751C11.1133 15.961 9.71628 16.2 7.00028 16.2C4.28428 16.2 2.88728 15.961 2.18528 15.751C1.93628 15.677 1.83928 15.388 1.92728 15.123C2.14728 14.453 2.56227 13.295 3.33827 12.002C5.23427 8.843 7.20128 12.499 8.83828 12.499C10.4753 12.499 10.0263 10.938 10.6623 12.002C11.2472 12.9866 11.7205 14.0334 12.0733 15.123C12.1613 15.388 12.0643 15.676 11.8153 15.751Z" fill="#142D6F"/>
</svg>
