<svg width="271" height="24" viewBox="0 0 271 24" fill="none" xmlns="http://www.w3.org/2000/svg">
<path d="M10.8 20.736C9.432 20.736 8.152 20.504 6.96 20.04C5.776 19.584 4.732 18.936 3.828 18.096C2.932 17.264 2.228 16.28 1.716 15.144C1.212 14 0.96 12.748 0.96 11.388C0.96 10.036 1.212 8.764 1.716 7.572C2.228 6.38 2.932 5.336 3.828 4.44C4.732 3.536 5.78 2.832 6.972 2.328C8.164 1.816 9.44 1.56 10.8 1.56C12.16 1.56 13.436 1.816 14.628 2.328C15.82 2.84 16.864 3.548 17.76 4.452C18.656 5.356 19.356 6.404 19.86 7.596C20.372 8.78 20.628 10.044 20.628 11.388C20.628 12.116 20.536 12.836 20.352 13.548C20.176 14.252 19.912 14.892 19.56 15.468C19.216 16.036 18.792 16.492 18.288 16.836C17.784 17.172 17.208 17.34 16.56 17.34C16.08 17.34 15.596 17.236 15.108 17.028C14.628 16.812 14.216 16.524 13.872 16.164C13.528 15.796 13.32 15.392 13.248 14.952C12.936 15.32 12.544 15.616 12.072 15.84C11.608 16.056 11.08 16.164 10.488 16.164C9.616 16.164 8.816 15.952 8.088 15.528C7.368 15.096 6.792 14.52 6.36 13.8C5.936 13.072 5.724 12.268 5.724 11.388C5.724 10.508 5.936 9.708 6.36 8.988C6.792 8.268 7.368 7.696 8.088 7.272C8.816 6.84 9.616 6.624 10.488 6.624C11.048 6.624 11.592 6.724 12.12 6.924C12.656 7.124 13.072 7.4 13.368 7.752V6.864L15.276 7.236V13.74C15.276 14.068 15.384 14.336 15.6 14.544C15.824 14.744 16.092 14.844 16.404 14.844C16.812 14.844 17.14 14.656 17.388 14.28C17.644 13.896 17.832 13.436 17.952 12.9C18.072 12.356 18.132 11.852 18.132 11.388C18.132 10.372 17.94 9.42 17.556 8.532C17.172 7.644 16.64 6.864 15.96 6.192C15.288 5.52 14.508 4.996 13.62 4.62C12.74 4.244 11.8 4.056 10.8 4.056C9.792 4.056 8.844 4.248 7.956 4.632C7.068 5.008 6.284 5.532 5.604 6.204C4.932 6.876 4.404 7.656 4.02 8.544C3.644 9.424 3.456 10.372 3.456 11.388C3.456 12.404 3.644 13.332 4.02 14.172C4.396 15.012 4.92 15.736 5.592 16.344C6.272 16.944 7.052 17.412 7.932 17.748C8.82 18.084 9.776 18.252 10.8 18.252V20.736ZM10.68 14.268C11.216 14.268 11.684 14.128 12.084 13.848C12.484 13.568 12.796 13.204 13.02 12.756C13.244 12.3 13.356 11.82 13.356 11.316C13.356 10.812 13.248 10.352 13.032 9.936C12.816 9.512 12.508 9.172 12.108 8.916C11.708 8.652 11.232 8.52 10.68 8.52C10.152 8.52 9.668 8.648 9.228 8.904C8.796 9.16 8.448 9.508 8.184 9.948C7.928 10.38 7.8 10.86 7.8 11.388C7.8 11.924 7.932 12.412 8.196 12.852C8.46 13.284 8.808 13.628 9.24 13.884C9.68 14.14 10.16 14.268 10.68 14.268ZM22.4259 18V15.78C22.9939 15.308 23.6459 14.76 24.3819 14.136C25.1179 13.504 25.8659 12.836 26.6259 12.132C27.3859 11.42 28.0859 10.712 28.7259 10.008C29.3659 9.296 29.8819 8.624 30.2739 7.992C30.6739 7.352 30.8739 6.796 30.8739 6.324C30.8739 5.788 30.7419 5.3 30.4779 4.86C30.2219 4.412 29.8739 4.056 29.4339 3.792C28.9939 3.52 28.5059 3.384 27.9699 3.384C27.4339 3.384 26.9419 3.52 26.4939 3.792C26.0539 4.056 25.6979 4.412 25.4259 4.86C25.1619 5.3 25.0299 5.788 25.0299 6.324H22.5339C22.5339 5.308 22.7819 4.392 23.2779 3.576C23.7819 2.752 24.4419 2.1 25.2579 1.62C26.0819 1.132 26.9859 0.887999 27.9699 0.887999C28.9619 0.887999 29.8659 1.132 30.6819 1.62C31.4979 2.108 32.1499 2.764 32.6379 3.588C33.1259 4.404 33.3699 5.316 33.3699 6.324C33.3699 6.884 33.2539 7.46 33.0219 8.052C32.7899 8.644 32.4659 9.248 32.0499 9.864C31.6419 10.48 31.1659 11.104 30.6219 11.736C30.0779 12.368 29.4939 13 28.8699 13.632C28.2459 14.264 27.6099 14.888 26.9619 15.504H33.5139V18H22.4259ZM41.4491 18.312C40.4571 18.312 39.5611 18.088 38.7611 17.64C37.9691 17.184 37.2851 16.556 36.7091 15.756C36.1331 14.956 35.6931 14.032 35.3891 12.984C35.0851 11.928 34.9331 10.8 34.9331 9.6C34.9331 8.4 35.0851 7.272 35.3891 6.216C35.6931 5.16 36.1331 4.236 36.7091 3.444C37.2851 2.644 37.9691 2.02 38.7611 1.572C39.5611 1.116 40.4571 0.887999 41.4491 0.887999C42.4251 0.887999 43.3131 1.116 44.1131 1.572C44.9131 2.02 45.5931 2.644 46.1531 3.444C46.7211 4.236 47.1571 5.16 47.4611 6.216C47.7651 7.272 47.9171 8.4 47.9171 9.6C47.9171 10.8 47.7651 11.928 47.4611 12.984C47.1571 14.032 46.7211 14.956 46.1531 15.756C45.5931 16.556 44.9131 17.184 44.1131 17.64C43.3131 18.088 42.4251 18.312 41.4491 18.312ZM41.4491 15.816C42.3691 15.816 43.1331 15.528 43.7411 14.952C44.3571 14.368 44.8171 13.604 45.1211 12.66C45.4251 11.716 45.5771 10.696 45.5771 9.6C45.5771 8.448 45.4171 7.404 45.0971 6.468C44.7851 5.524 44.3211 4.776 43.7051 4.224C43.0971 3.664 42.3451 3.384 41.4491 3.384C40.7371 3.384 40.1171 3.552 39.5891 3.888C39.0691 4.224 38.6371 4.684 38.2931 5.268C37.9571 5.852 37.7011 6.516 37.5251 7.26C37.3571 8.004 37.2731 8.784 37.2731 9.6C37.2731 10.696 37.4291 11.716 37.7411 12.66C38.0531 13.604 38.5171 14.368 39.1331 14.952C39.7571 15.528 40.5291 15.816 41.4491 15.816ZM49.4672 18V15.78C50.0352 15.308 50.6872 14.76 51.4232 14.136C52.1592 13.504 52.9072 12.836 53.6672 12.132C54.4272 11.42 55.1272 10.712 55.7672 10.008C56.4072 9.296 56.9232 8.624 57.3152 7.992C57.7152 7.352 57.9152 6.796 57.9152 6.324C57.9152 5.788 57.7832 5.3 57.5192 4.86C57.2632 4.412 56.9152 4.056 56.4752 3.792C56.0352 3.52 55.5472 3.384 55.0112 3.384C54.4752 3.384 53.9832 3.52 53.5352 3.792C53.0952 4.056 52.7392 4.412 52.4672 4.86C52.2032 5.3 52.0712 5.788 52.0712 6.324H49.5752C49.5752 5.308 49.8232 4.392 50.3192 3.576C50.8232 2.752 51.4832 2.1 52.2992 1.62C53.1232 1.132 54.0272 0.887999 55.0112 0.887999C56.0032 0.887999 56.9072 1.132 57.7232 1.62C58.5392 2.108 59.1912 2.764 59.6792 3.588C60.1672 4.404 60.4112 5.316 60.4112 6.324C60.4112 6.884 60.2952 7.46 60.0632 8.052C59.8312 8.644 59.5072 9.248 59.0912 9.864C58.6832 10.48 58.2072 11.104 57.6632 11.736C57.1192 12.368 56.5352 13 55.9112 13.632C55.2872 14.264 54.6512 14.888 54.0032 15.504H60.5552V18H49.4672ZM68.3798 18.312C67.3158 18.312 66.3518 18.056 65.4878 17.544C64.6318 17.024 63.9518 16.336 63.4478 15.48C62.9518 14.616 62.7038 13.672 62.7038 12.648H65.1998C65.1998 13.232 65.3438 13.764 65.6318 14.244C65.9198 14.724 66.3038 15.108 66.7838 15.396C67.2638 15.676 67.7958 15.816 68.3798 15.816C68.9558 15.816 69.4838 15.676 69.9638 15.396C70.4438 15.108 70.8278 14.724 71.1158 14.244C71.4038 13.764 71.5478 13.232 71.5478 12.648C71.5478 12.064 71.4158 11.532 71.1518 11.052C70.8878 10.564 70.4918 10.176 69.9638 9.888C69.4358 9.592 68.7638 9.444 67.9478 9.444H63.7118L65.4158 1.2H73.5398V3.696H67.4438L66.7838 6.948L68.2358 6.972C69.3798 6.996 70.3838 7.26 71.2478 7.764C72.1198 8.26 72.8038 8.932 73.2998 9.78C73.7958 10.62 74.0438 11.576 74.0438 12.648C74.0438 13.424 73.8958 14.156 73.5998 14.844C73.3038 15.524 72.8958 16.124 72.3758 16.644C71.8638 17.164 71.2638 17.572 70.5758 17.868C69.8958 18.164 69.1638 18.312 68.3798 18.312ZM77.6289 18.312C77.2609 18.312 76.9489 18.184 76.6929 17.928C76.4449 17.672 76.3209 17.36 76.3209 16.992C76.3209 16.632 76.4449 16.324 76.6929 16.068C76.9489 15.812 77.2609 15.684 77.6289 15.684C77.9969 15.684 78.3089 15.812 78.5649 16.068C78.8209 16.324 78.9489 16.632 78.9489 16.992C78.9489 17.36 78.8209 17.672 78.5649 17.928C78.3089 18.184 77.9969 18.312 77.6289 18.312ZM87.348 1.2H90.264L96.372 18H93.732L92.568 14.808H85.044L83.892 18H81.24L87.348 1.2ZM85.968 12.312H91.644L88.8 4.512L85.968 12.312ZM98.3578 18V-1.43051e-06H100.854V18H98.3578ZM103.605 18V-1.43051e-06H106.101V18H103.605ZM114.498 18V1.2H120.678C121.59 1.2 122.41 1.424 123.138 1.872C123.866 2.32 124.442 2.924 124.866 3.684C125.298 4.436 125.514 5.276 125.514 6.204C125.514 6.988 125.366 7.704 125.07 8.352C124.782 9 124.374 9.552 123.846 10.008C123.326 10.464 122.73 10.792 122.058 10.992L126.114 18H123.222L119.286 11.22H116.994V18H114.498ZM116.994 8.724H120.414C120.894 8.724 121.33 8.604 121.722 8.364C122.122 8.124 122.438 7.804 122.67 7.404C122.902 7.004 123.018 6.552 123.018 6.048C123.018 5.544 122.902 5.092 122.67 4.692C122.438 4.284 122.122 3.964 121.722 3.732C121.33 3.492 120.894 3.372 120.414 3.372H116.994V8.724ZM128.089 6H130.585V18H128.089V6ZM129.361 4.26C128.977 4.26 128.657 4.136 128.401 3.888C128.145 3.64 128.017 3.328 128.017 2.952C128.017 2.584 128.145 2.276 128.401 2.028C128.657 1.772 128.973 1.644 129.349 1.644C129.717 1.644 130.029 1.772 130.285 2.028C130.541 2.276 130.669 2.584 130.669 2.952C130.669 3.328 130.541 3.64 130.285 3.888C130.037 4.136 129.729 4.26 129.361 4.26ZM142.257 6H144.753V18.312C144.753 19.136 144.577 19.896 144.225 20.592C143.881 21.288 143.413 21.888 142.821 22.392C142.229 22.904 141.549 23.3 140.781 23.58C140.021 23.86 139.225 24 138.393 24C137.553 24 136.745 23.82 135.969 23.46C135.193 23.108 134.509 22.628 133.917 22.02C133.333 21.412 132.897 20.724 132.609 19.956L134.901 18.924C135.061 19.42 135.317 19.86 135.669 20.244C136.029 20.628 136.445 20.932 136.917 21.156C137.397 21.38 137.889 21.492 138.393 21.492C138.889 21.492 139.365 21.412 139.821 21.252C140.285 21.1 140.697 20.884 141.057 20.604C141.425 20.324 141.717 19.988 141.933 19.596C142.149 19.204 142.257 18.776 142.257 18.312V16.284C141.865 16.892 141.361 17.384 140.745 17.76C140.129 18.128 139.413 18.312 138.597 18.312C137.749 18.312 136.949 18.148 136.197 17.82C135.445 17.492 134.785 17.04 134.217 16.464C133.649 15.88 133.205 15.208 132.885 14.448C132.565 13.688 132.405 12.872 132.405 12C132.405 11.128 132.565 10.312 132.885 9.552C133.205 8.784 133.649 8.112 134.217 7.536C134.785 6.952 135.445 6.496 136.197 6.168C136.949 5.84 137.749 5.676 138.597 5.676C139.413 5.676 140.129 5.864 140.745 6.24C141.361 6.608 141.865 7.1 142.257 7.716V6ZM138.621 15.9C139.317 15.9 139.925 15.724 140.445 15.372C140.965 15.012 141.369 14.536 141.657 13.944C141.945 13.352 142.089 12.704 142.089 12C142.089 11.28 141.941 10.628 141.645 10.044C141.357 9.452 140.953 8.98 140.433 8.628C139.913 8.268 139.309 8.088 138.621 8.088C137.949 8.088 137.333 8.264 136.773 8.616C136.221 8.968 135.781 9.44 135.453 10.032C135.125 10.624 134.961 11.28 134.961 12C134.961 12.72 135.125 13.376 135.453 13.968C135.789 14.56 136.233 15.032 136.785 15.384C137.345 15.728 137.957 15.9 138.621 15.9ZM158.313 10.476V18H155.817V11.088C155.817 10.552 155.685 10.064 155.421 9.624C155.165 9.184 154.817 8.836 154.377 8.58C153.945 8.316 153.457 8.184 152.913 8.184C152.385 8.184 151.901 8.316 151.461 8.58C151.021 8.836 150.669 9.184 150.405 9.624C150.141 10.064 150.009 10.552 150.009 11.088V18H147.513V-1.43051e-06H150.009V7.272C150.425 6.776 150.937 6.384 151.545 6.096C152.153 5.808 152.809 5.664 153.513 5.664C154.401 5.664 155.209 5.88 155.937 6.312C156.665 6.744 157.241 7.324 157.665 8.052C158.097 8.78 158.313 9.588 158.313 10.476ZM166.924 8.496H164.404L164.392 18H161.896L161.908 8.496H160V6H161.908L161.896 2.232H164.392L164.404 6H166.924V8.496ZM174.598 18V1.2H180.778C181.69 1.2 182.51 1.424 183.238 1.872C183.966 2.32 184.542 2.924 184.966 3.684C185.398 4.436 185.614 5.276 185.614 6.204C185.614 6.988 185.466 7.704 185.17 8.352C184.882 9 184.474 9.552 183.946 10.008C183.426 10.464 182.83 10.792 182.158 10.992L186.214 18H183.322L179.386 11.22H177.094V18H174.598ZM177.094 8.724H180.514C180.994 8.724 181.43 8.604 181.822 8.364C182.222 8.124 182.538 7.804 182.77 7.404C183.002 7.004 183.118 6.552 183.118 6.048C183.118 5.544 183.002 5.092 182.77 4.692C182.538 4.284 182.222 3.964 181.822 3.732C181.43 3.492 180.994 3.372 180.514 3.372H177.094V8.724ZM193.094 18.312C191.99 18.312 190.982 18.028 190.07 17.46C189.166 16.892 188.442 16.132 187.898 15.18C187.362 14.22 187.094 13.16 187.094 12C187.094 11.12 187.25 10.3 187.562 9.54C187.874 8.772 188.302 8.1 188.846 7.524C189.398 6.94 190.038 6.484 190.766 6.156C191.494 5.828 192.27 5.664 193.094 5.664C194.014 5.664 194.858 5.856 195.626 6.24C196.394 6.616 197.05 7.14 197.594 7.812C198.138 8.476 198.538 9.244 198.794 10.116C199.05 10.98 199.126 11.9 199.022 12.876H189.77C189.874 13.428 190.074 13.928 190.37 14.376C190.674 14.816 191.058 15.164 191.522 15.42C191.994 15.676 192.518 15.808 193.094 15.816C193.702 15.816 194.254 15.664 194.75 15.36C195.254 15.056 195.666 14.636 195.986 14.1L198.518 14.688C198.038 15.752 197.314 16.624 196.346 17.304C195.378 17.976 194.294 18.312 193.094 18.312ZM189.686 10.968H196.502C196.422 10.392 196.218 9.872 195.89 9.408C195.57 8.936 195.166 8.564 194.678 8.292C194.198 8.012 193.67 7.872 193.094 7.872C192.526 7.872 191.998 8.008 191.51 8.28C191.03 8.552 190.63 8.924 190.31 9.396C189.998 9.86 189.79 10.384 189.686 10.968ZM204.536 18.228C203.904 18.188 203.288 18.06 202.688 17.844C202.088 17.628 201.56 17.336 201.104 16.968C200.656 16.592 200.32 16.152 200.096 15.648L202.22 14.736C202.324 14.952 202.504 15.164 202.76 15.372C203.024 15.58 203.332 15.752 203.684 15.888C204.036 16.016 204.404 16.08 204.788 16.08C205.164 16.08 205.512 16.028 205.832 15.924C206.16 15.812 206.428 15.644 206.636 15.42C206.844 15.196 206.948 14.928 206.948 14.616C206.948 14.264 206.828 13.992 206.588 13.8C206.356 13.6 206.064 13.448 205.712 13.344C205.36 13.24 205.008 13.14 204.656 13.044C203.872 12.868 203.152 12.628 202.496 12.324C201.848 12.012 201.332 11.616 200.948 11.136C200.564 10.648 200.372 10.052 200.372 9.348C200.372 8.58 200.58 7.916 200.996 7.356C201.412 6.788 201.956 6.352 202.628 6.048C203.308 5.744 204.032 5.592 204.8 5.592C205.76 5.592 206.64 5.796 207.44 6.204C208.24 6.612 208.852 7.172 209.276 7.884L207.296 9.06C207.176 8.82 206.996 8.604 206.756 8.412C206.516 8.22 206.244 8.068 205.94 7.956C205.636 7.836 205.32 7.768 204.992 7.752C204.584 7.736 204.204 7.784 203.852 7.896C203.508 8 203.232 8.168 203.024 8.4C202.816 8.632 202.712 8.928 202.712 9.288C202.712 9.64 202.836 9.904 203.084 10.08C203.332 10.248 203.644 10.384 204.02 10.488C204.404 10.592 204.796 10.708 205.196 10.836C205.908 11.06 206.576 11.336 207.2 11.664C207.824 11.984 208.328 12.38 208.712 12.852C209.096 13.324 209.28 13.9 209.264 14.58C209.264 15.332 209.036 15.992 208.58 16.56C208.132 17.128 207.548 17.56 206.828 17.856C206.108 18.152 205.344 18.276 204.536 18.228ZM216.315 18.312C215.211 18.312 214.203 18.028 213.291 17.46C212.387 16.892 211.663 16.132 211.119 15.18C210.583 14.22 210.315 13.16 210.315 12C210.315 11.12 210.471 10.3 210.783 9.54C211.095 8.772 211.523 8.1 212.067 7.524C212.619 6.94 213.259 6.484 213.987 6.156C214.715 5.828 215.491 5.664 216.315 5.664C217.235 5.664 218.079 5.856 218.847 6.24C219.615 6.616 220.271 7.14 220.815 7.812C221.359 8.476 221.759 9.244 222.015 10.116C222.271 10.98 222.347 11.9 222.243 12.876H212.991C213.095 13.428 213.295 13.928 213.591 14.376C213.895 14.816 214.279 15.164 214.743 15.42C215.215 15.676 215.739 15.808 216.315 15.816C216.923 15.816 217.475 15.664 217.971 15.36C218.475 15.056 218.887 14.636 219.207 14.1L221.739 14.688C221.259 15.752 220.535 16.624 219.567 17.304C218.599 17.976 217.515 18.312 216.315 18.312ZM212.907 10.968H219.723C219.643 10.392 219.439 9.872 219.111 9.408C218.791 8.936 218.387 8.564 217.899 8.292C217.419 8.012 216.891 7.872 216.315 7.872C215.747 7.872 215.219 8.008 214.731 8.28C214.251 8.552 213.851 8.924 213.531 9.396C213.219 9.86 213.011 10.384 212.907 10.968ZM224.11 18V6H226.606V7.272C227.022 6.776 227.534 6.384 228.142 6.096C228.75 5.808 229.406 5.664 230.11 5.664C230.558 5.664 231.002 5.724 231.442 5.844L230.446 8.364C230.134 8.244 229.822 8.184 229.51 8.184C228.982 8.184 228.498 8.316 228.058 8.58C227.618 8.836 227.266 9.184 227.002 9.624C226.738 10.064 226.606 10.552 226.606 11.088V18H224.11ZM239.878 18H236.674L232.294 5.976H234.958L238.27 15.12L241.594 5.976H244.246L239.878 18ZM250.783 18.312C249.679 18.312 248.671 18.028 247.759 17.46C246.855 16.892 246.131 16.132 245.587 15.18C245.051 14.22 244.783 13.16 244.783 12C244.783 11.12 244.939 10.3 245.251 9.54C245.563 8.772 245.991 8.1 246.535 7.524C247.087 6.94 247.727 6.484 248.455 6.156C249.183 5.828 249.959 5.664 250.783 5.664C251.703 5.664 252.547 5.856 253.315 6.24C254.083 6.616 254.739 7.14 255.283 7.812C255.827 8.476 256.227 9.244 256.483 10.116C256.739 10.98 256.815 11.9 256.711 12.876H247.459C247.563 13.428 247.763 13.928 248.059 14.376C248.363 14.816 248.747 15.164 249.211 15.42C249.683 15.676 250.207 15.808 250.783 15.816C251.391 15.816 251.943 15.664 252.439 15.36C252.943 15.056 253.355 14.636 253.675 14.1L256.207 14.688C255.727 15.752 255.003 16.624 254.035 17.304C253.067 17.976 251.983 18.312 250.783 18.312ZM247.375 10.968H254.191C254.111 10.392 253.907 9.872 253.579 9.408C253.259 8.936 252.855 8.564 252.367 8.292C251.887 8.012 251.359 7.872 250.783 7.872C250.215 7.872 249.687 8.008 249.199 8.28C248.719 8.552 248.319 8.924 247.999 9.396C247.687 9.86 247.479 10.384 247.375 10.968ZM267.903 -1.43051e-06H270.399V18H267.903V16.236C267.511 16.86 266.999 17.364 266.367 17.748C265.735 18.124 264.995 18.312 264.147 18.312C263.275 18.312 262.459 18.148 261.699 17.82C260.939 17.492 260.267 17.04 259.683 16.464C259.107 15.88 258.655 15.208 258.327 14.448C257.999 13.688 257.835 12.872 257.835 12C257.835 11.128 257.999 10.312 258.327 9.552C258.655 8.784 259.107 8.112 259.683 7.536C260.267 6.952 260.939 6.496 261.699 6.168C262.459 5.84 263.275 5.676 264.147 5.676C264.995 5.676 265.735 5.868 266.367 6.252C266.999 6.628 267.511 7.124 267.903 7.74V-1.43051e-06ZM264.171 15.9C264.875 15.9 265.491 15.728 266.019 15.384C266.547 15.032 266.955 14.56 267.243 13.968C267.539 13.376 267.687 12.72 267.687 12C267.687 11.272 267.539 10.612 267.243 10.02C266.947 9.428 266.535 8.96 266.007 8.616C265.487 8.264 264.875 8.088 264.171 8.088C263.475 8.088 262.839 8.264 262.263 8.616C261.695 8.968 261.239 9.44 260.895 10.032C260.559 10.624 260.391 11.28 260.391 12C260.391 12.728 260.563 13.388 260.907 13.98C261.259 14.564 261.719 15.032 262.287 15.384C262.863 15.728 263.491 15.9 264.171 15.9Z" fill="#142D6F"/>
</svg>
