<svg width="39" height="30" viewBox="0 0 39 30" fill="none" xmlns="http://www.w3.org/2000/svg">
<path id="Vector" d="M0.877534 13.4682C0.471347 13.8745 0.243163 14.4255 0.243163 15.0001C0.243163 15.5746 0.471347 16.1256 0.877534 16.5319L13.1344 28.7887C13.3342 28.9957 13.5733 29.1607 13.8377 29.2743C14.102 29.3878 14.3863 29.4476 14.674 29.4501C14.9617 29.4526 15.247 29.3978 15.5133 29.2888C15.7795 29.1799 16.0215 29.019 16.2249 28.8156C16.4283 28.6122 16.5892 28.3702 16.6981 28.104C16.8071 27.8377 16.8619 27.5524 16.8594 27.2647C16.8569 26.977 16.7971 26.6927 16.6836 26.4284C16.57 26.164 16.405 25.9249 16.198 25.7251L7.6397 17.1667L36.3329 17.1667C36.9075 17.1667 37.4586 16.9385 37.8649 16.5321C38.2713 16.1258 38.4995 15.5747 38.4995 15.0001C38.4995 14.4254 38.2713 13.8743 37.8649 13.468C37.4586 13.0617 36.9075 12.8334 36.3329 12.8334L7.6397 12.8334L16.198 4.27507C16.5927 3.86643 16.8111 3.31913 16.8062 2.75104C16.8012 2.18294 16.5734 1.63952 16.1716 1.2378C15.7699 0.836082 15.2265 0.608213 14.6584 0.603277C14.0903 0.59834 13.543 0.816728 13.1344 1.2114L0.877534 13.4682Z" fill="#A3BDFF"/>
</svg>
